<?xml version="1.0" encoding="UTF-8" standalone="no"?>
<!DOCTYPE svg PUBLIC "-//W3C//DTD SVG 1.1//EN" "http://www.w3.org/Graphics/SVG/1.1/DTD/svg11.dtd">
<!-- Created with Vectornator (http://vectornator.io/) -->
<svg stroke-miterlimit="10" style="fill-rule:nonzero;clip-rule:evenodd;stroke-linecap:round;stroke-linejoin:round;"
  version="1.1" viewBox="0 0 400 400" xml:space="preserve" xmlns="http://www.w3.org/2000/svg"
  xmlns:vectornator="http://vectornator.io" xmlns:xlink="http://www.w3.org/1999/xlink">
  <g id="Untitled" vectornator:layerName="Untitled">
    <path
      d="M317.354 203.765C319.335 231.795 312.911 257.013 295.249 278.703C275.342 303.167 248.841 315.988 217.981 319.545C182.649 323.621 150.392 315.356 122.872 292.185C101.635 274.307 90.2383 251.022 87.5684 223.436C87.4174 221.908 87.5684 220.351 87.5684 218.823C87.8608 218.672 88.1533 218.379 88.3514 218.436C100.616 222.21 109.815 217.323 116.872 207.671C128.712 191.472 133.42 173.16 131.967 153.215C131.844 151.527 131.627 149.847 131.363 147.281C143.364 155.093 155.487 160.357 169.393 157.225C183.621 154.027 191.093 143.441 196.64 130.073C202.858 144.224 211.499 154.914 226.963 157.499C241.633 159.942 254.275 154.546 266.691 146.083C266.625 161.291 270.125 175.018 279.767 186.425C289.409 197.831 300.278 206.794 317.354 203.765Z"
      fill="#ffd70a" fill-rule="evenodd" opacity="1" stroke="none" />
    <g opacity="1">
      <path
        d="M231.623 80.1738C250.869 80.4191 264.417 88.9289 273.456 104.703C278.918 114.213 278.371 123.619 271.427 132.299C262.153 143.894 250.039 150.527 235.227 151.574C224.283 152.347 215.273 148.045 208.811 139.158C200.64 127.931 198.008 115.27 200.622 101.722C203.018 89.3535 211.367 82.3626 224.953 80.6266C227.425 80.2775 229.934 80.2492 231.623 80.1738Z"
        fill="#272727" fill-rule="evenodd" opacity="1" stroke="none" />
      <path
        d="M163.44 79.4567C168.422 80.6455 173.573 81.3436 178.337 83.1362C185.545 85.8061 189.998 91.2876 191.895 98.8163C195.122 111.084 193.507 124.123 187.385 135.233C180.413 148.319 168.884 153.81 154.44 150.8C142.782 148.454 132.469 141.724 125.627 131.997C119.617 123.733 119.136 115.015 123.306 105.807C130.533 89.8913 145.713 80.1738 163.44 79.4567Z"
        fill="#272727" fill-rule="evenodd" opacity="1" stroke="none" />
      <path
        d="M127.014 159.857C125.948 174.877 122.174 188.595 114.051 200.935C109.588 207.728 104.239 213.973 94.9367 213.049C85.6343 212.124 80.5114 205.633 77.0112 197.718C68.1805 177.905 72.4072 153.998 87.1438 139.913C92.7384 134.573 99.1727 131.016 107.145 130.856C114.117 130.724 119.664 133.582 122.051 140.073C124.344 146.423 125.448 153.244 127.014 159.857Z"
        fill="#272727" fill-rule="evenodd" opacity="1" stroke="none" />
      <path
        d="M327.572 175.226C327.194 183 325.685 191.802 316.722 196.35C307.759 200.897 300.278 196.35 293.438 191.066C279.748 180.575 273.05 166.405 273.22 149.234C273.361 135.243 283.484 128.063 297.098 131.79C314.863 136.658 327.44 154.074 327.572 175.226Z"
        fill="#272727" fill-rule="evenodd" opacity="1" stroke="none" />
    </g>
  </g>
</svg>
