<?xml version="1.0" encoding="UTF-8" standalone="no"?>
<!DOCTYPE svg PUBLIC "-//W3C//DTD SVG 1.1//EN" "http://www.w3.org/Graphics/SVG/1.1/DTD/svg11.dtd">
<!-- Created with Vectornator (http://vectornator.io/) -->
<svg stroke-miterlimit="10" style="fill-rule:nonzero;clip-rule:evenodd;stroke-linecap:round;stroke-linejoin:round;"
  version="1.1" viewBox="0 0 1024 1024" xml:space="preserve" xmlns="http://www.w3.org/2000/svg"
  xmlns:xlink="http://www.w3.org/1999/xlink">
  <g id="Untitled">
    <path
      d="M243 564.5C242.936 750.389 393.611 901.116 579.5 901.116C765.389 901.116 916.064 750.389 916 564.5C916.064 378.611 765.389 227.884 579.5 227.884C393.611 227.884 242.936 378.611 243 564.5L243 564.5Z"
      fill="#ffeb3b" fill-rule="nonzero" opacity="1" stroke="none" />
    <path
      d="M463.5 709C293.672 709 156 571.328 156 401.5C156 231.672 293.672 94 463.5 94C633.328 94 771 231.672 771 401.5C771 571.328 633.328 709 463.5 709ZM463.5 627.774C588.467 627.774 689.774 526.467 689.774 401.5C689.774 276.533 588.467 175.226 463.5 175.226C338.533 175.226 237.226 276.533 237.226 401.5C237.226 526.467 338.533 627.774 463.5 627.774ZM163.985 926.97C143.212 935.47 119.5 925.476 111.022 904.647C102.545 883.817 112.512 860.041 133.284 851.541C241.574 807.226 351.52 785 462.854 785C574.047 785 685.898 807.167 798.198 851.333C819.085 859.548 829.376 883.185 821.184 904.128C812.992 925.072 789.419 935.391 768.532 927.177C665.481 886.648 563.658 866.468 462.854 866.468C362.193 866.468 262.657 886.59 163.984 926.969L163.985 926.97Z"
      fill="#353535" fill-rule="nonzero" opacity="1" stroke="none" />
  </g>
</svg>
