<?xml version="1.0" encoding="UTF-8" standalone="no"?>
<!DOCTYPE svg PUBLIC "-//W3C//DTD SVG 1.1//EN" "http://www.w3.org/Graphics/SVG/1.1/DTD/svg11.dtd">
<!-- Created with Vectornator (http://vectornator.io/) -->
<svg stroke-miterlimit="10" style="fill-rule:nonzero;clip-rule:evenodd;stroke-linecap:round;stroke-linejoin:round;"
  version="1.1" viewBox="0 0 1024 1024" xml:space="preserve" xmlns="http://www.w3.org/2000/svg"
  xmlns:vectornator="http://vectornator.io" xmlns:xlink="http://www.w3.org/1999/xlink">
  <g id="Untitled" vectornator:layerName="Untitled">
    <g opacity="1">
      <path
        d="M283.329 590.589C283.329 770.355 428.091 916.084 606.665 916.084C785.238 916.084 930 770.355 930 590.589C930 410.823 785.238 265.094 606.665 265.094C428.091 265.094 283.329 410.823 283.329 590.589Z"
        fill="#ffeb3b" fill-rule="evenodd" opacity="1" stroke="none" />
      <path
        d="M495.414 74.5C682.586 74.5 789.108 109.172 844.808 189.353C887.845 251.303 896.243 311.337 896.806 480.744L896.806 521.446C896.222 692.807 887.718 756.473 845.51 822.379C789.507 909.822 681.142 949.5 495.414 949.5C314.999 949.5 207.733 912.095 150.329 829.871C104.196 763.79 94.2213 691.342 94 523.522L94.0271 467.85C94.6479 309.905 105.065 243.009 151.116 182.334C208.171 107.163 313.652 74.5 495.413 74.5L495.414 74.5ZM495.414 141.808L485.115 141.845C328.776 142.964 244.774 169.844 204.291 223.182C169.703 268.754 161.104 328.426 160.905 478.101L160.905 523.476C161.107 676.762 169.927 740.835 205.077 791.186C247.388 851.788 334.577 882.192 495.414 882.192C660.744 882.192 748.097 850.208 789.268 785.923C819.841 738.186 828.346 684.76 829.719 548.317L829.933 500.782C829.933 338.514 823.848 280.509 793.774 233.604L789.97 227.911C749.796 170.082 662.932 141.807 495.414 141.807L495.414 141.808ZM528.866 635.397C547.341 635.397 562.319 650.465 562.319 669.051C562.319 686.545 549.051 700.92 532.087 702.551L528.866 702.705L372.756 702.705C354.281 702.705 339.305 687.637 339.305 669.051C339.305 651.558 352.571 637.182 369.536 635.552L372.757 635.397L528.866 635.397ZM618.071 455.91C636.546 455.91 651.523 470.978 651.523 489.564C651.523 507.057 638.257 521.433 621.292 523.064L618.071 523.218L372.757 523.218C354.281 523.218 339.305 508.151 339.305 489.564C339.305 472.071 352.571 457.696 369.536 456.064L372.757 455.91L618.071 455.91ZM618.071 276.423C636.546 276.423 651.523 291.49 651.523 310.077C651.523 327.571 638.257 341.946 621.292 343.577L618.071 343.73L372.757 343.73C354.281 343.73 339.305 328.663 339.305 310.077C339.305 292.584 352.571 278.208 369.536 276.577L372.757 276.423L618.071 276.423Z"
        fill="#353535" fill-rule="evenodd" opacity="1" stroke="none" />
    </g>
  </g>
</svg>
