<?xml version="1.0" encoding="UTF-8" standalone="no"?>
<!DOCTYPE svg PUBLIC "-//W3C//DTD SVG 1.1//EN" "http://www.w3.org/Graphics/SVG/1.1/DTD/svg11.dtd">
<!-- Created with Vectornator (http://vectornator.io/) -->
<svg stroke-miterlimit="10" style="fill-rule:nonzero;clip-rule:evenodd;stroke-linecap:round;stroke-linejoin:round;"
  version="1.1" viewBox="0 0 1024 1024" xml:space="preserve" xmlns="http://www.w3.org/2000/svg"
  xmlns:vectornator="http://vectornator.io" xmlns:xlink="http://www.w3.org/1999/xlink">
  <g id="Untitled" vectornator:layerName="Untitled">
    <path
      d="M395.846 603.585C391.925 605.565 387.91 606.51 383.036 606.51C372.136 606.51 363.245 600.66 358.272 591.885L356.266 588.021L278.16 420.108C277.204 418.128 277.204 416.243 277.204 414.263C277.204 406.433 283.132 400.583 291.067 400.583C294.032 400.583 296.995 401.527 299.96 403.507L391.925 467.937C398.809 471.801 406.745 474.727 415.633 474.727C420.605 474.727 425.483 473.782 430.455 471.801L861.71 282.479C784.561 192.675 657.026 134.095 512.575 134.095C277.204 134.095 85.333 291.253 85.333 485.389C85.333 590.757 142.694 686.406 232.656 750.836C239.536 755.741 244.508 764.516 244.508 773.286C244.508 776.211 243.551 779.136 242.502 782.061C235.621 808.379 223.671 851.395 223.671 853.284C222.713 856.204 221.658 860.074 221.658 864.034C221.658 871.864 227.587 877.714 235.523 877.714C238.486 877.714 241.451 876.77 243.458 874.789L336.38 821.115C343.265 817.245 351.2 814.321 359.136 814.321C363.052 814.321 368.025 815.265 371.946 816.301C415.442 828.945 462.958 835.831 511.426 835.831C746.798 835.831 938.666 678.673 938.666 484.537C938.666 425.957 920.886 370.394 890.199 321.534L398.809 601.604L395.846 603.584L395.846 603.585Z"
      fill="#09bb07" fill-rule="evenodd" opacity="1" stroke="none" />
  </g>
</svg>
